<svg width="20" height="20" viewBox="0 0 20 20" fill="none" xmlns="http://www.w3.org/2000/svg">
<path fill-rule="evenodd" clip-rule="evenodd" d="M10.4692 4.16664C10.4692 3.90776 10.2593 3.69789 10.0004 3.69789C9.74154 3.69789 9.53168 3.90776 9.53168 4.16664V9.53125H4.16699C3.90811 9.53125 3.69824 9.74112 3.69824 10C3.69824 10.2589 3.90811 10.4688 4.16699 10.4688H9.53168V15.8333C9.53168 16.0922 9.74154 16.3021 10.0004 16.3021C10.2593 16.3021 10.4692 16.0922 10.4692 15.8333V10.4688H15.8337C16.0925 10.4688 16.3024 10.2589 16.3024 10C16.3024 9.74112 16.0925 9.53125 15.8337 9.53125H10.4692V4.16664Z" fill="#121212"/>
</svg>
