<svg width="19" height="19" viewBox="0 0 19 19" fill="none" xmlns="http://www.w3.org/2000/svg">
<path d="M0.5 1.78571C0.5 1.44472 0.635459 1.1177 0.876577 0.876577C1.1177 0.635459 1.44472 0.5 1.78571 0.5H4.35714C4.69814 0.5 5.02516 0.635459 5.26628 0.876577C5.5074 1.1177 5.64286 1.44472 5.64286 1.78571V4.35714C5.64286 4.69814 5.5074 5.02516 5.26628 5.26628C5.02516 5.5074 4.69814 5.64286 4.35714 5.64286H1.78571C1.44472 5.64286 1.1177 5.5074 0.876577 5.26628C0.635459 5.02516 0.5 4.69814 0.5 4.35714V1.78571ZM6.92857 1.78571C6.92857 1.44472 7.06403 1.1177 7.30515 0.876577C7.54627 0.635459 7.87329 0.5 8.21429 0.5H10.7857C11.1267 0.5 11.4537 0.635459 11.6949 0.876577C11.936 1.1177 12.0714 1.44472 12.0714 1.78571V4.35714C12.0714 4.69814 11.936 5.02516 11.6949 5.26628C11.4537 5.5074 11.1267 5.64286 10.7857 5.64286H8.21429C7.87329 5.64286 7.54627 5.5074 7.30515 5.26628C7.06403 5.02516 6.92857 4.69814 6.92857 4.35714V1.78571ZM13.3571 1.78571C13.3571 1.44472 13.4926 1.1177 13.7337 0.876577C13.9748 0.635459 14.3019 0.5 14.6429 0.5H17.2143C17.5553 0.5 17.8823 0.635459 18.1234 0.876577C18.3645 1.1177 18.5 1.44472 18.5 1.78571V4.35714C18.5 4.69814 18.3645 5.02516 18.1234 5.26628C17.8823 5.5074 17.5553 5.64286 17.2143 5.64286H14.6429C14.3019 5.64286 13.9748 5.5074 13.7337 5.26628C13.4926 5.02516 13.3571 4.69814 13.3571 4.35714V1.78571ZM0.5 8.21429C0.5 7.87329 0.635459 7.54627 0.876577 7.30515C1.1177 7.06403 1.44472 6.92857 1.78571 6.92857H4.35714C4.69814 6.92857 5.02516 7.06403 5.26628 7.30515C5.5074 7.54627 5.64286 7.87329 5.64286 8.21429V10.7857C5.64286 11.1267 5.5074 11.4537 5.26628 11.6949C5.02516 11.936 4.69814 12.0714 4.35714 12.0714H1.78571C1.44472 12.0714 1.1177 11.936 0.876577 11.6949C0.635459 11.4537 0.5 11.1267 0.5 10.7857V8.21429ZM6.92857 8.21429C6.92857 7.87329 7.06403 7.54627 7.30515 7.30515C7.54627 7.06403 7.87329 6.92857 8.21429 6.92857H10.7857C11.1267 6.92857 11.4537 7.06403 11.6949 7.30515C11.936 7.54627 12.0714 7.87329 12.0714 8.21429V10.7857C12.0714 11.1267 11.936 11.4537 11.6949 11.6949C11.4537 11.936 11.1267 12.0714 10.7857 12.0714H8.21429C7.87329 12.0714 7.54627 11.936 7.30515 11.6949C7.06403 11.4537 6.92857 11.1267 6.92857 10.7857V8.21429ZM13.3571 8.21429C13.3571 7.87329 13.4926 7.54627 13.7337 7.30515C13.9748 7.06403 14.3019 6.92857 14.6429 6.92857H17.2143C17.5553 6.92857 17.8823 7.06403 18.1234 7.30515C18.3645 7.54627 18.5 7.87329 18.5 8.21429V10.7857C18.5 11.1267 18.3645 11.4537 18.1234 11.6949C17.8823 11.936 17.5553 12.0714 17.2143 12.0714H14.6429C14.3019 12.0714 13.9748 11.936 13.7337 11.6949C13.4926 11.4537 13.3571 11.1267 13.3571 10.7857V8.21429ZM0.5 14.6429C0.5 14.3019 0.635459 13.9748 0.876577 13.7337C1.1177 13.4926 1.44472 13.3571 1.78571 13.3571H4.35714C4.69814 13.3571 5.02516 13.4926 5.26628 13.7337C5.5074 13.9748 5.64286 14.3019 5.64286 14.6429V17.2143C5.64286 17.5553 5.5074 17.8823 5.26628 18.1234C5.02516 18.3645 4.69814 18.5 4.35714 18.5H1.78571C1.44472 18.5 1.1177 18.3645 0.876577 18.1234C0.635459 17.8823 0.5 17.5553 0.5 17.2143V14.6429ZM6.92857 14.6429C6.92857 14.3019 7.06403 13.9748 7.30515 13.7337C7.54627 13.4926 7.87329 13.3571 8.21429 13.3571H10.7857C11.1267 13.3571 11.4537 13.4926 11.6949 13.7337C11.936 13.9748 12.0714 14.3019 12.0714 14.6429V17.2143C12.0714 17.5553 11.936 17.8823 11.6949 18.1234C11.4537 18.3645 11.1267 18.5 10.7857 18.5H8.21429C7.87329 18.5 7.54627 18.3645 7.30515 18.1234C7.06403 17.8823 6.92857 17.5553 6.92857 17.2143V14.6429ZM13.3571 14.6429C13.3571 14.3019 13.4926 13.9748 13.7337 13.7337C13.9748 13.4926 14.3019 13.3571 14.6429 13.3571H17.2143C17.5553 13.3571 17.8823 13.4926 18.1234 13.7337C18.3645 13.9748 18.5 14.3019 18.5 14.6429V17.2143C18.5 17.5553 18.3645 17.8823 18.1234 18.1234C17.8823 18.3645 17.5553 18.5 17.2143 18.5H14.6429C14.3019 18.5 13.9748 18.3645 13.7337 18.1234C13.4926 17.8823 13.3571 17.5553 13.3571 17.2143V14.6429Z" fill="#141718"/>
</svg>
