<svg width="18" height="18" viewBox="0 0 18 18" fill="none" xmlns="http://www.w3.org/2000/svg">
<path d="M10 12.25C10 11.6533 10.2371 11.081 10.659 10.6591C11.081 10.2371 11.6533 10 12.25 10L15.75 10C16.3467 10 16.919 10.2371 17.341 10.6591C17.7629 11.081 18 11.6533 18 12.25L18 15.75C18 16.3468 17.7629 16.9191 17.341 17.341C16.919 17.763 16.3467 18 15.75 18L12.25 18C11.6533 18 11.081 17.763 10.659 17.341C10.2371 16.9191 10 16.3468 10 15.75L10 12.25ZM10 2.25005C10 1.65331 10.2371 1.08101 10.659 0.659055C11.081 0.237099 11.6533 4.59554e-05 12.25 4.59294e-05L15.75 4.57764e-05C16.3467 4.57503e-05 16.919 0.237098 17.341 0.659055C17.7629 1.08101 18 1.65331 18 2.25005L18 5.75004C18 6.34678 17.7629 6.91908 17.341 7.34104C16.919 7.76299 16.3467 8.00004 15.75 8.00004L12.25 8.00004C11.6533 8.00004 11.081 7.76299 10.659 7.34104C10.2371 6.91908 10 6.34678 10 5.75005L10 2.25005ZM4.37114e-07 12.25C4.1103e-07 11.6533 0.237053 11.081 0.65901 10.6591C1.08097 10.2371 1.65326 10 2.25 10L5.75 10C6.34674 10 6.91903 10.2371 7.34099 10.6591C7.76295 11.081 8 11.6533 8 12.25L8 15.75C8 16.3468 7.76295 16.9191 7.34099 17.341C6.91903 17.763 6.34674 18 5.75 18L2.25 18C1.65326 18 1.08097 17.763 0.65901 17.341C0.237054 16.9191 6.16188e-07 16.3468 5.90104e-07 15.75L4.37114e-07 12.25ZM0 2.25005C-2.60842e-08 1.65331 0.237053 1.08101 0.65901 0.659056C1.08097 0.237099 1.65326 4.63926e-05 2.25 4.63665e-05L5.75 4.62135e-05C6.34674 4.61874e-05 6.91903 0.237099 7.34099 0.659056C7.76295 1.08101 8 1.65331 8 2.25005L8 5.75005C8 6.34678 7.76295 6.91908 7.34099 7.34104C6.91903 7.76299 6.34674 8.00005 5.75 8.00005L2.25 8.00005C1.65326 8.00005 1.08097 7.76299 0.65901 7.34104C0.237053 6.91908 1.79074e-07 6.34678 1.5299e-07 5.75005L0 2.25005Z" fill="#141718"/>
<path d="M3 18L3 10.002L15 10.002L15 18L3 18Z" fill="#141718"/>
<path d="M3 7.99809L3 4.63337e-05L15 4.58091e-05L15 7.99809L3 7.99809Z" fill="#141718"/>
</svg>
